<svg width="1440" height="4480" viewBox="0 0 1440 4480" fill="none" xmlns="http://www.w3.org/2000/svg">
<g id="bgIndex.background">
<path id="top" d="M-214.461 467.684C-214.461 209.683 -5.23085 0.453125 252.77 0.453125C510.77 0.453125 720 209.683 720 467.684" fill="url(#paint0_linear)"/>
<path id="bottom" d="M1654.46 467.684C1654.46 725.684 1445.23 934.914 1187.23 934.914C929.23 934.914 720 725.684 720 467.684" fill="url(#paint1_linear)"/>
<circle id="Ellipse 1" cx="1254" cy="2026" r="593" fill="url(#paint2_linear)"/>
<circle id="Ellipse 4" cx="246" cy="2970" r="593" transform="rotate(-180 246 2970)" fill="url(#paint3_linear)"/>
<circle id="Ellipse 3" cx="717" cy="3760" r="720" fill="url(#paint4_linear)"/>
</g>
<defs>
<linearGradient id="paint0_linear" x1="252.77" y1="0.453125" x2="252.77" y2="467.684" gradientUnits="userSpaceOnUse">
<stop stop-color="white"/>
<stop offset="1" stop-color="white" stop-opacity="0"/>
</linearGradient>
<linearGradient id="paint1_linear" x1="1187.23" y1="934.914" x2="1187.23" y2="467.684" gradientUnits="userSpaceOnUse">
<stop stop-color="white"/>
<stop offset="1" stop-color="white" stop-opacity="0"/>
</linearGradient>
<linearGradient id="paint2_linear" x1="661" y1="2026" x2="1847" y2="2026" gradientUnits="userSpaceOnUse">
<stop stop-color="#E5E5E5"/>
<stop offset="1" stop-color="#E5E5E5" stop-opacity="0"/>
</linearGradient>
<linearGradient id="paint3_linear" x1="-347" y1="2970" x2="839" y2="2970" gradientUnits="userSpaceOnUse">
<stop stop-color="#E5E5E5"/>
<stop offset="1" stop-color="#E5E5E5" stop-opacity="0"/>
</linearGradient>
<linearGradient id="paint4_linear" x1="717" y1="4480" x2="717" y2="3040" gradientUnits="userSpaceOnUse">
<stop stop-color="#E5E5E5"/>
<stop offset="1" stop-color="#E5E5E5" stop-opacity="0"/>
</linearGradient>
</defs>
</svg>
