<svg width="205" height="62" viewBox="0 0 205 62" fill="none" xmlns="http://www.w3.org/2000/svg">
<path d="M131.365 0V5.44288H122.141V30.8081H115.643V5.47777H106.35V0H131.365Z" fill="#636564"/>
<path d="M137.968 16.9567C139.086 16.8172 139.89 16.6427 140.344 16.4334C141.217 16.0845 141.637 15.4913 141.637 14.7237C141.637 13.7817 141.322 13.1537 140.658 12.8048C139.995 12.4559 139.051 12.2814 137.759 12.2814C136.326 12.2814 135.313 12.6303 134.719 13.3281C134.3 13.8515 134.02 14.5493 133.88 15.4216H128.116C128.256 13.4328 128.815 11.793 129.793 10.502C131.365 8.47839 134.09 7.50146 137.968 7.50146C140.484 7.50146 142.72 7.98993 144.641 9.00175C146.598 9.97867 147.576 11.8627 147.576 14.6191V25.0862C147.576 25.8189 147.576 26.6911 147.611 27.7378C147.646 28.5054 147.786 29.0636 147.96 29.3428C148.17 29.6219 148.449 29.8661 148.834 30.0406V30.9128H142.335C142.161 30.4593 142.021 30.0057 141.951 29.6219C141.881 29.2032 141.811 28.7496 141.776 28.2263C140.938 29.1334 139.995 29.8661 138.911 30.4942C137.619 31.2268 136.151 31.6106 134.544 31.6106C132.483 31.6106 130.736 31.0175 129.408 29.8312C128.046 28.645 127.382 26.9702 127.382 24.807C127.382 22.0158 128.465 19.9922 130.666 18.7361C131.854 18.0383 133.636 17.5499 135.942 17.2707L137.968 16.9567ZM141.637 19.7479C141.252 19.9922 140.868 20.1666 140.484 20.3062C140.099 20.4458 139.575 20.5853 138.877 20.7249L137.514 20.9691C136.256 21.1784 135.313 21.4576 134.754 21.7716C133.811 22.3298 133.356 23.1672 133.356 24.3186C133.356 25.3304 133.636 26.0631 134.23 26.5167C134.789 26.9702 135.488 27.1796 136.326 27.1796C137.619 27.1796 138.842 26.7958 139.925 26.0631C141.008 25.2955 141.602 23.9348 141.637 21.946V19.7479Z" fill="#636564"/>
<path d="M169.691 10.7811C171.403 12.9443 172.242 15.7356 172.242 19.1548C172.242 22.7136 171.403 25.6444 169.726 27.9471C168.049 30.2848 165.709 31.4362 162.669 31.4362C160.782 31.4362 159.245 31.0524 158.092 30.3197C157.393 29.8661 156.66 29.0985 155.856 27.982V30.843H149.987V0.0698242H155.961V11.0254C156.73 9.97866 157.568 9.14129 158.476 8.58305C159.56 7.88524 160.922 7.53634 162.599 7.53634C165.639 7.53634 167.979 8.61794 169.691 10.7811ZM164.695 24.6675C165.569 23.4114 165.988 21.8065 165.988 19.7828C165.988 18.1779 165.778 16.8172 165.359 15.7704C164.556 13.7468 163.088 12.7699 160.922 12.7699C158.756 12.7699 157.254 13.7468 156.415 15.7356C155.996 16.7823 155.786 18.143 155.786 19.7828C155.786 21.7367 156.206 23.3416 157.079 24.6326C157.952 25.9235 159.28 26.5515 161.062 26.5515C162.634 26.5166 163.857 25.9235 164.695 24.6675Z" fill="#636564"/>
<path d="M179.928 30.843H173.954V0H179.928V30.843Z" fill="#636564"/>
<path d="M198.061 8.51344C199.668 9.21125 200.96 10.3626 202.009 11.8978C202.952 13.2585 203.546 14.8286 203.825 16.608C204 17.6547 204.035 19.155 204.035 21.1437H187.405C187.509 23.4465 188.278 25.0165 189.78 25.9586C190.689 26.5168 191.772 26.8308 193.065 26.8308C194.427 26.8308 195.545 26.4819 196.384 25.7841C196.838 25.4003 197.257 24.877 197.606 24.2141H203.686C203.511 25.5748 202.777 26.9355 201.484 28.3311C199.423 30.5641 196.593 31.6457 192.89 31.6457C189.85 31.6457 187.16 30.7037 184.854 28.8545C182.548 26.9704 181.36 23.9349 181.36 19.7132C181.36 15.7706 182.409 12.7352 184.505 10.6417C186.601 8.54833 189.326 7.46673 192.68 7.46673C194.672 7.43184 196.453 7.78075 198.061 8.51344ZM189.117 13.6423C188.278 14.5146 187.754 15.7008 187.509 17.1662H197.781C197.676 15.5962 197.152 14.375 196.174 13.5725C195.231 12.7701 194.043 12.3514 192.645 12.3514C191.143 12.3514 189.955 12.7701 189.117 13.6423Z" fill="#636564"/>
<path d="M115.678 40.5771H121.443V41.5541H116.726V43.9615H121.093V44.8687H116.726V47.5552H121.513V48.4972H115.678V40.5771Z" fill="#636564"/>
<path d="M123.679 45.9504C123.714 46.404 123.818 46.7529 123.993 47.032C124.343 47.5553 124.936 47.8345 125.81 47.8345C126.194 47.8345 126.544 47.7647 126.858 47.66C127.487 47.4507 127.801 47.032 127.801 46.4737C127.801 46.0551 127.662 45.741 127.417 45.5666C127.137 45.3921 126.753 45.2177 126.159 45.113L125.111 44.8688C124.447 44.6943 123.958 44.5199 123.679 44.3454C123.19 44.0314 122.945 43.5081 122.945 42.8452C122.945 42.1473 123.19 41.5542 123.679 41.1006C124.168 40.6471 124.832 40.4028 125.705 40.4028C126.509 40.4028 127.207 40.6122 127.766 40.996C128.325 41.3798 128.605 42.0427 128.605 42.9149H127.592C127.557 42.4962 127.417 42.1473 127.277 41.938C126.963 41.5193 126.439 41.31 125.67 41.31C125.076 41.31 124.622 41.4495 124.343 41.6938C124.063 41.9729 123.958 42.2869 123.958 42.6358C123.958 43.0196 124.098 43.2987 124.447 43.4732C124.657 43.5778 125.111 43.7174 125.845 43.8919L126.928 44.1361C127.452 44.2757 127.836 44.4152 128.116 44.6246C128.605 45.0083 128.849 45.5317 128.849 46.2295C128.849 47.1018 128.535 47.7298 127.906 48.1136C127.277 48.4974 126.544 48.6718 125.74 48.6718C124.762 48.6718 124.028 48.4276 123.469 47.9042C122.91 47.4158 122.666 46.718 122.666 45.8806H123.679V45.9504Z" fill="#636564"/>
<path d="M135.977 41.1355C136.536 41.6588 136.815 42.252 136.885 42.9498H135.837C135.732 42.4264 135.488 42.0426 135.138 41.7286C134.789 41.4146 134.3 41.275 133.671 41.275C132.902 41.275 132.273 41.5542 131.819 42.1124C131.33 42.6707 131.12 43.508 131.12 44.6245C131.12 45.5665 131.33 46.2992 131.749 46.8924C132.169 47.4855 132.797 47.7646 133.671 47.7646C134.439 47.7646 135.033 47.4506 135.453 46.8575C135.662 46.5435 135.837 46.1248 135.942 45.6014H136.99C136.885 46.4388 136.606 47.1366 136.082 47.6949C135.453 48.3927 134.614 48.7067 133.566 48.7067C132.658 48.7067 131.889 48.4275 131.26 47.8693C130.457 47.1366 130.037 45.9852 130.037 44.4501C130.037 43.2638 130.352 42.3218 130.946 41.5542C131.61 40.7517 132.518 40.333 133.671 40.333C134.649 40.333 135.418 40.6121 135.977 41.1355Z" fill="#636564"/>
<path d="M138.457 40.5771H142.056C142.65 40.5771 143.139 40.6818 143.523 40.8563C144.257 41.2052 144.606 41.8332 144.606 42.7403C144.606 43.2288 144.501 43.6126 144.327 43.8917C144.117 44.2057 143.873 44.45 143.488 44.6244C143.803 44.764 144.047 44.9035 144.187 45.1129C144.327 45.3222 144.432 45.6362 144.467 46.1247L144.501 47.1714C144.501 47.4854 144.536 47.6948 144.571 47.8343C144.641 48.0786 144.746 48.253 144.921 48.3228V48.4972H143.593C143.558 48.4275 143.523 48.3577 143.523 48.2181C143.488 48.1134 143.488 47.9041 143.453 47.5901L143.383 46.2643C143.349 45.7409 143.174 45.392 142.824 45.2176C142.615 45.1129 142.3 45.078 141.881 45.078H139.505V48.4623H138.422V40.5771H138.457ZM141.951 44.2057C142.44 44.2057 142.824 44.1011 143.104 43.8917C143.383 43.6824 143.523 43.3335 143.523 42.8101C143.523 42.2519 143.314 41.8681 142.929 41.6587C142.72 41.5541 142.44 41.4843 142.056 41.4843H139.505V44.2057H141.951Z" fill="#636564"/>
<path d="M146.598 40.5771H147.681V48.4972H146.598V40.5771Z" fill="#636564"/>
<path d="M155.192 40.5771V41.5192H152.502V48.4972H151.419V41.5192H148.729V40.5771H155.192Z" fill="#636564"/>
<path d="M162.704 41.6938C163.228 42.3916 163.507 43.2988 163.507 44.3804C163.507 45.5667 163.193 46.5436 162.599 47.3461C161.9 48.2532 160.887 48.7417 159.56 48.7417C158.337 48.7417 157.393 48.323 156.695 47.5205C156.066 46.7529 155.751 45.776 155.751 44.5897C155.751 43.5081 156.031 42.601 156.555 41.8334C157.254 40.8565 158.267 40.368 159.594 40.368C160.992 40.3331 162.04 40.7867 162.704 41.6938ZM161.761 46.7529C162.18 46.09 162.389 45.2875 162.389 44.4153C162.389 43.4732 162.145 42.7406 161.656 42.1474C161.167 41.5892 160.503 41.31 159.664 41.31C158.826 41.31 158.162 41.5892 157.638 42.1474C157.114 42.7057 156.869 43.543 156.869 44.6246C156.869 45.4969 157.079 46.2296 157.533 46.8576C157.987 47.4507 158.686 47.7648 159.699 47.7648C160.643 47.7648 161.341 47.4159 161.761 46.7529ZM160.782 38.1699L159.35 39.74H158.616L159.594 38.1699H160.782Z" fill="#636564"/>
<path d="M164.905 40.5771H168.504C169.098 40.5771 169.587 40.6818 169.971 40.8563C170.705 41.2052 171.054 41.8332 171.054 42.7403C171.054 43.2288 170.949 43.6126 170.775 43.8917C170.565 44.2057 170.32 44.45 169.936 44.6244C170.25 44.764 170.495 44.9035 170.635 45.1129C170.775 45.3222 170.879 45.6362 170.914 46.1247L170.949 47.1714C170.949 47.4854 170.984 47.6948 171.019 47.8343C171.089 48.0786 171.194 48.253 171.368 48.3228V48.4972H170.041C170.006 48.4275 169.971 48.3577 169.971 48.2181C169.936 48.1134 169.936 47.9041 169.901 47.5901L169.831 46.2643C169.796 45.7409 169.622 45.392 169.272 45.2176C169.063 45.1129 168.748 45.078 168.329 45.078H165.953V48.4623H164.905V40.5771ZM168.399 44.2057C168.888 44.2057 169.272 44.1011 169.552 43.8917C169.831 43.6824 169.971 43.3335 169.971 42.8101C169.971 42.2519 169.761 41.8681 169.377 41.6587C169.167 41.5541 168.888 41.4843 168.504 41.4843H165.953V44.2057H168.399Z" fill="#636564"/>
<path d="M173.045 40.5771H174.128V48.4972H173.045V40.5771Z" fill="#636564"/>
<path d="M182.409 41.6939C182.933 42.3917 183.212 43.2989 183.212 44.3805C183.212 45.5667 182.898 46.5437 182.304 47.3461C181.605 48.2533 180.592 48.7417 179.264 48.7417C178.041 48.7417 177.098 48.3231 176.399 47.5206C175.77 46.753 175.456 45.7761 175.456 44.5898C175.456 43.5082 175.736 42.6011 176.26 41.8335C176.958 40.8565 177.972 40.3681 179.299 40.3681C180.697 40.3332 181.745 40.7868 182.409 41.6939ZM181.465 46.753C181.885 46.0901 182.094 45.2876 182.094 44.4154C182.094 43.4733 181.85 42.7406 181.36 42.1475C180.871 41.5892 180.208 41.3101 179.369 41.3101C178.531 41.3101 177.867 41.5892 177.343 42.1475C176.819 42.7057 176.574 43.5431 176.574 44.6247C176.574 45.497 176.784 46.2297 177.238 46.8577C177.692 47.4508 178.391 47.7648 179.404 47.7648C180.347 47.7648 181.046 47.4159 181.465 46.753Z" fill="#636564"/>
<path d="M115.538 53.8354H117.076L119.346 60.5344L121.617 53.8354H123.155V61.7555H122.141V57.0802C122.141 56.9058 122.141 56.6616 122.141 56.2778C122.141 55.894 122.141 55.5102 122.141 55.0566L119.871 61.7555H118.787L116.482 55.0566V55.3008C116.482 55.5102 116.482 55.7893 116.482 56.1731C116.482 56.5569 116.482 56.8709 116.482 57.0454V61.7555H115.468V53.8354H115.538Z" fill="#636564"/>
<path d="M125.041 53.8354H126.124V61.7555H125.041V53.8354Z" fill="#636564"/>
<path d="M127.941 53.8354H131.12C132.203 53.8354 133.042 54.2192 133.636 54.9868C134.16 55.6846 134.439 56.5918 134.439 57.6734C134.439 58.5107 134.3 59.2783 133.985 59.9412C133.426 61.1275 132.483 61.7555 131.155 61.7555H127.976V53.8354H127.941ZM130.876 60.8484C131.225 60.8484 131.54 60.8135 131.749 60.7437C132.168 60.6042 132.483 60.325 132.762 59.9412C132.972 59.6272 133.112 59.2086 133.217 58.7201C133.286 58.4061 133.286 58.1618 133.286 57.8827C133.286 56.9058 133.112 56.1382 132.727 55.58C132.343 55.0217 131.714 54.7775 130.876 54.7775H129.024V60.8833H130.876V60.8484Z" fill="#636564"/>
<path d="M136.116 53.8354H137.2V61.7555H136.116V53.8354Z" fill="#636564"/>
<path d="M141.252 53.8358H142.475L145.34 61.7559H144.152L143.314 59.3833H140.204L139.331 61.7559H138.213L141.252 53.8358ZM143.034 58.5111L141.811 55.022L140.553 58.5111H143.034ZM142.964 51.6377L141.532 53.2078H140.798L141.776 51.6377H142.964Z" fill="#636564"/>
<path d="M152.118 53.8354V54.7775H149.428V61.7555H148.345V54.7775H145.654V53.8354H152.118Z" fill="#636564"/>
<path d="M153.341 53.8354H154.424V61.7555H153.341V53.8354Z" fill="#636564"/>
<path d="M161.795 54.3938C162.354 54.9171 162.634 55.5103 162.704 56.2081H161.656C161.551 55.6847 161.306 55.3009 160.957 54.9869C160.608 54.6729 160.118 54.5333 159.49 54.5333C158.721 54.5333 158.092 54.8125 157.638 55.3707C157.149 55.929 156.939 56.7663 156.939 57.8828C156.939 58.8248 157.149 59.5575 157.568 60.1507C157.987 60.7438 158.616 61.0229 159.49 61.0229C160.258 61.0229 160.852 60.7089 161.271 60.1158C161.481 59.8018 161.656 59.3831 161.761 58.8597H162.809C162.704 59.6971 162.424 60.3949 161.9 60.9531C161.271 61.651 160.433 61.965 159.385 61.965C158.476 61.965 157.708 61.6858 157.079 61.1276C156.275 60.3949 155.856 59.2435 155.856 57.7084C155.856 56.5221 156.171 55.5801 156.764 54.8125C157.428 54.01 158.337 53.5913 159.49 53.5913C160.468 53.6262 161.236 53.8704 161.795 54.3938Z" fill="#636564"/>
<path d="M170.705 54.9523C171.229 55.6501 171.508 56.5572 171.508 57.6388C171.508 58.8251 171.194 59.802 170.6 60.6045C169.901 61.5117 168.888 62.0001 167.56 62.0001C166.337 62.0001 165.394 61.5814 164.695 60.779C164.066 60.0114 163.752 59.0345 163.752 57.8482C163.752 56.7666 164.031 55.8594 164.556 55.0919C165.254 54.1149 166.267 53.6265 167.595 53.6265C168.993 53.6265 170.041 54.08 170.705 54.9523ZM169.761 60.0114C170.18 59.3485 170.39 58.546 170.39 57.6737C170.39 56.7317 170.146 55.999 169.656 55.4059C169.167 54.8476 168.503 54.5685 167.665 54.5685C166.826 54.5685 166.163 54.8476 165.639 55.4059C165.115 55.9641 164.87 56.8015 164.87 57.8831C164.87 58.7553 165.08 59.488 165.534 60.1161C165.988 60.7092 166.687 61.0232 167.7 61.0232C168.643 61.0581 169.342 60.7092 169.761 60.0114Z" fill="#636564"/>
<path d="M30.8847 0H0V30.843H30.8847V0Z" fill="#636564"/>
<path d="M61.7695 30.8433H30.8848V61.6863H61.7695V30.8433Z" fill="#636564"/>
<path d="M92.6543 0H61.7695V30.843H92.6543V0Z" fill="#636564"/>
</svg>
